<?xml version="1.0" encoding="UTF-8" standalone="no"?>
<!DOCTYPE svg PUBLIC "-//W3C//DTD SVG 1.1//EN"
 "http://www.w3.org/Graphics/SVG/1.1/DTD/svg11.dtd">
<!-- Generated by graphviz version 5.0.0 (20220707.1540)
 -->
<!-- Title: dependencies Pages: 1 -->
<svg width="362pt" height="247pt"
 viewBox="0.00 0.00 362.00 246.80" xmlns="http://www.w3.org/2000/svg" xmlns:xlink="http://www.w3.org/1999/xlink">
<g id="graph0" class="graph" transform="scale(1 1) rotate(0) translate(4 242.8)">
<title>dependencies</title>
<polygon fill="white" stroke="transparent" points="-4,4 -4,-242.8 358,-242.8 358,4 -4,4"/>
<text text-anchor="middle" x="177" y="-8.2" font-family="sans-serif" font-size="14.00">dependencies</text>
<g id="clust1" class="cluster">
<title>cluster_CoreModule</title>
<polygon fill="none" stroke="black" stroke-dasharray="1,5" points="8,-32.8 8,-230.8 346,-230.8 346,-32.8 8,-32.8"/>
</g>
<g id="clust3" class="cluster">
<title>cluster_CoreModule_imports</title>
<polygon fill="none" stroke="black" points="16,-40.8 16,-92.8 338,-92.8 338,-40.8 16,-40.8"/>
</g>
<g id="clust4" class="cluster">
<title>cluster_CoreModule_exports</title>
<polygon fill="none" stroke="black" points="74,-170.8 74,-222.8 287,-222.8 287,-170.8 74,-170.8"/>
</g>
<!-- AuthModule -->
<g id="node1" class="node">
<title>AuthModule</title>
<polygon fill="#8dd3c7" stroke="black" points="329.55,-84.8 326.55,-88.8 305.55,-88.8 302.55,-84.8 242.45,-84.8 242.45,-48.8 329.55,-48.8 329.55,-84.8"/>
<text text-anchor="middle" x="286" y="-62.6" font-family="Times,serif" font-size="14.00">AuthModule</text>
</g>
<!-- CoreModule -->
<g id="node4" class="node">
<title>CoreModule</title>
<polygon fill="#8dd3c7" stroke="black" points="225.27,-149.8 222.27,-153.8 201.27,-153.8 198.27,-149.8 138.73,-149.8 138.73,-113.8 225.27,-113.8 225.27,-149.8"/>
<text text-anchor="middle" x="182" y="-127.6" font-family="Times,serif" font-size="14.00">CoreModule</text>
</g>
<!-- AuthModule&#45;&gt;CoreModule -->
<g id="edge1" class="edge">
<title>AuthModule&#45;&gt;CoreModule</title>
<path fill="none" stroke="black" d="M260.38,-84.91C260.38,-104.14 260.38,-131.8 260.38,-131.8 260.38,-131.8 235.31,-131.8 235.31,-131.8"/>
<polygon fill="black" stroke="black" points="235.31,-128.3 225.31,-131.8 235.31,-135.3 235.31,-128.3"/>
</g>
<!-- IconModule -->
<g id="node2" class="node">
<title>IconModule</title>
<polygon fill="#8dd3c7" stroke="black" points="224.43,-84.8 221.43,-88.8 200.43,-88.8 197.43,-84.8 139.57,-84.8 139.57,-48.8 224.43,-48.8 224.43,-84.8"/>
<text text-anchor="middle" x="182" y="-62.6" font-family="Times,serif" font-size="14.00">IconModule</text>
</g>
<!-- IconModule&#45;&gt;CoreModule -->
<g id="edge2" class="edge">
<title>IconModule&#45;&gt;CoreModule</title>
<path fill="none" stroke="black" d="M182,-84.91C182,-84.91 182,-103.79 182,-103.79"/>
<polygon fill="black" stroke="black" points="178.5,-103.79 182,-113.79 185.5,-103.79 178.5,-103.79"/>
</g>
<!-- SharedModule -->
<g id="node3" class="node">
<title>SharedModule</title>
<polygon fill="#8dd3c7" stroke="black" points="122.43,-84.8 119.43,-88.8 98.43,-88.8 95.43,-84.8 23.57,-84.8 23.57,-48.8 122.43,-48.8 122.43,-84.8"/>
<text text-anchor="middle" x="73" y="-62.6" font-family="Times,serif" font-size="14.00">SharedModule</text>
</g>
<!-- SharedModule&#45;&gt;CoreModule -->
<g id="edge3" class="edge">
<title>SharedModule&#45;&gt;CoreModule</title>
<path fill="none" stroke="black" d="M102.12,-84.91C102.12,-104.14 102.12,-131.8 102.12,-131.8 102.12,-131.8 128.32,-131.8 128.32,-131.8"/>
<polygon fill="black" stroke="black" points="128.32,-135.3 138.32,-131.8 128.32,-128.3 128.32,-135.3"/>
</g>
<!-- AuthModule  -->
<g id="node5" class="node">
<title>AuthModule </title>
<polygon fill="#fb8072" stroke="black" points="278.55,-214.8 187.45,-214.8 187.45,-178.8 278.55,-178.8 278.55,-214.8"/>
<text text-anchor="middle" x="233" y="-192.6" font-family="Times,serif" font-size="14.00">AuthModule </text>
</g>
<!-- CoreModule&#45;&gt;AuthModule  -->
<g id="edge4" class="edge">
<title>CoreModule&#45;&gt;AuthModule </title>
<path fill="none" stroke="black" stroke-dasharray="5,2" d="M206.43,-149.91C206.43,-149.91 206.43,-168.79 206.43,-168.79"/>
<polygon fill="black" stroke="black" points="202.93,-168.79 206.43,-178.79 209.93,-168.79 202.93,-168.79"/>
</g>
<!-- IconModule  -->
<g id="node6" class="node">
<title>IconModule </title>
<polygon fill="#fb8072" stroke="black" points="169.93,-214.8 82.07,-214.8 82.07,-178.8 169.93,-178.8 169.93,-214.8"/>
<text text-anchor="middle" x="126" y="-192.6" font-family="Times,serif" font-size="14.00">IconModule </text>
</g>
<!-- CoreModule&#45;&gt;IconModule  -->
<g id="edge5" class="edge">
<title>CoreModule&#45;&gt;IconModule </title>
<path fill="none" stroke="black" stroke-dasharray="5,2" d="M154.29,-149.91C154.29,-149.91 154.29,-168.79 154.29,-168.79"/>
<polygon fill="black" stroke="black" points="150.79,-168.79 154.29,-178.79 157.79,-168.79 150.79,-168.79"/>
</g>
</g>
</svg>
