<?xml version="1.0" encoding="UTF-8" standalone="no"?>
<!DOCTYPE svg PUBLIC "-//W3C//DTD SVG 1.1//EN"
 "http://www.w3.org/Graphics/SVG/1.1/DTD/svg11.dtd">
<!-- Generated by graphviz version 5.0.0 (20220707.1540)
 -->
<!-- Title: dependencies Pages: 1 -->
<svg width="414pt" height="174pt"
 viewBox="0.00 0.00 414.00 173.80" xmlns="http://www.w3.org/2000/svg" xmlns:xlink="http://www.w3.org/1999/xlink">
<g id="graph0" class="graph" transform="scale(1 1) rotate(0) translate(4 169.8)">
<title>dependencies</title>
<polygon fill="white" stroke="transparent" points="-4,4 -4,-169.8 410,-169.8 410,4 -4,4"/>
<text text-anchor="middle" x="203" y="-8.2" font-family="sans-serif" font-size="14.00">dependencies</text>
<g id="clust1" class="cluster">
<title>cluster_DocsModule</title>
<polygon fill="none" stroke="black" stroke-dasharray="1,5" points="8,-32.8 8,-157.8 398,-157.8 398,-32.8 8,-32.8"/>
</g>
<g id="clust5" class="cluster">
<title>cluster_DocsModule_imports</title>
<polygon fill="none" stroke="black" points="276,-40.8 276,-92.8 390,-92.8 390,-40.8 276,-40.8"/>
</g>
<g id="clust2" class="cluster">
<title>cluster_DocsModule_declarations</title>
<polygon fill="none" stroke="black" points="16,-40.8 16,-92.8 268,-92.8 268,-40.8 16,-40.8"/>
</g>
<!-- DocsComponent -->
<g id="node1" class="node">
<title>DocsComponent</title>
<polygon fill="#ffffb3" stroke="black" points="260.1,-84.8 149.9,-84.8 149.9,-48.8 260.1,-48.8 260.1,-84.8"/>
<text text-anchor="middle" x="205" y="-62.6" font-family="Times,serif" font-size="14.00">DocsComponent</text>
</g>
<!-- DocsModule -->
<g id="node3" class="node">
<title>DocsModule</title>
<polygon fill="#8dd3c7" stroke="black" points="249.32,-149.8 246.32,-153.8 225.32,-153.8 222.32,-149.8 160.68,-149.8 160.68,-113.8 249.32,-113.8 249.32,-149.8"/>
<text text-anchor="middle" x="205" y="-127.6" font-family="Times,serif" font-size="14.00">DocsModule</text>
</g>
<!-- DocsComponent&#45;&gt;DocsModule -->
<g id="edge1" class="edge">
<title>DocsComponent&#45;&gt;DocsModule</title>
<path fill="none" stroke="black" d="M205,-84.91C205,-84.91 205,-103.79 205,-103.79"/>
<polygon fill="black" stroke="black" points="201.5,-103.79 205,-113.79 208.5,-103.79 201.5,-103.79"/>
</g>
<!-- FaqsComponent -->
<g id="node2" class="node">
<title>FaqsComponent</title>
<polygon fill="#ffffb3" stroke="black" points="131.78,-84.8 24.22,-84.8 24.22,-48.8 131.78,-48.8 131.78,-84.8"/>
<text text-anchor="middle" x="78" y="-62.6" font-family="Times,serif" font-size="14.00">FaqsComponent</text>
</g>
<!-- FaqsComponent&#45;&gt;DocsModule -->
<g id="edge2" class="edge">
<title>FaqsComponent&#45;&gt;DocsModule</title>
<path fill="none" stroke="black" d="M78,-84.91C78,-104.14 78,-131.8 78,-131.8 78,-131.8 150.58,-131.8 150.58,-131.8"/>
<polygon fill="black" stroke="black" points="150.58,-135.3 160.58,-131.8 150.58,-128.3 150.58,-135.3"/>
</g>
<!-- SharedModule -->
<g id="node4" class="node">
<title>SharedModule</title>
<polygon fill="#8dd3c7" stroke="black" points="382.43,-84.8 379.43,-88.8 358.43,-88.8 355.43,-84.8 283.57,-84.8 283.57,-48.8 382.43,-48.8 382.43,-84.8"/>
<text text-anchor="middle" x="333" y="-62.6" font-family="Times,serif" font-size="14.00">SharedModule</text>
</g>
<!-- SharedModule&#45;&gt;DocsModule -->
<g id="edge3" class="edge">
<title>SharedModule&#45;&gt;DocsModule</title>
<path fill="none" stroke="black" d="M333,-84.91C333,-104.14 333,-131.8 333,-131.8 333,-131.8 259.41,-131.8 259.41,-131.8"/>
<polygon fill="black" stroke="black" points="259.41,-128.3 249.41,-131.8 259.41,-135.3 259.41,-128.3"/>
</g>
</g>
</svg>
