<?xml version="1.0" encoding="UTF-8" standalone="no"?>
<!DOCTYPE svg PUBLIC "-//W3C//DTD SVG 1.1//EN"
 "http://www.w3.org/Graphics/SVG/1.1/DTD/svg11.dtd">
<!-- Generated by graphviz version 5.0.0 (20220707.1540)
 -->
<!-- Title: dependencies Pages: 1 -->
<svg width="300pt" height="174pt"
 viewBox="0.00 0.00 300.00 173.80" xmlns="http://www.w3.org/2000/svg" xmlns:xlink="http://www.w3.org/1999/xlink">
<g id="graph0" class="graph" transform="scale(1 1) rotate(0) translate(4 169.8)">
<title>dependencies</title>
<polygon fill="white" stroke="transparent" points="-4,4 -4,-169.8 296,-169.8 296,4 -4,4"/>
<text text-anchor="middle" x="146" y="-8.2" font-family="sans-serif" font-size="14.00">dependencies</text>
<g id="clust1" class="cluster">
<title>cluster_MarketModule</title>
<polygon fill="none" stroke="black" stroke-dasharray="1,5" points="8,-32.8 8,-157.8 284,-157.8 284,-32.8 8,-32.8"/>
</g>
<g id="clust2" class="cluster">
<title>cluster_MarketModule_declarations</title>
<polygon fill="none" stroke="black" points="138,-40.8 138,-92.8 276,-92.8 276,-40.8 138,-40.8"/>
</g>
<g id="clust4" class="cluster">
<title>cluster_MarketModule_imports</title>
<polygon fill="none" stroke="black" points="16,-40.8 16,-92.8 130,-92.8 130,-40.8 16,-40.8"/>
</g>
<!-- MarketComponent -->
<g id="node1" class="node">
<title>MarketComponent</title>
<polygon fill="#ffffb3" stroke="black" points="267.76,-84.8 146.24,-84.8 146.24,-48.8 267.76,-48.8 267.76,-84.8"/>
<text text-anchor="middle" x="207" y="-62.6" font-family="Times,serif" font-size="14.00">MarketComponent</text>
</g>
<!-- MarketModule -->
<g id="node2" class="node">
<title>MarketModule</title>
<polygon fill="#8dd3c7" stroke="black" points="189.98,-149.8 186.98,-153.8 165.98,-153.8 162.98,-149.8 90.02,-149.8 90.02,-113.8 189.98,-113.8 189.98,-149.8"/>
<text text-anchor="middle" x="140" y="-127.6" font-family="Times,serif" font-size="14.00">MarketModule</text>
</g>
<!-- MarketComponent&#45;&gt;MarketModule -->
<g id="edge1" class="edge">
<title>MarketComponent&#45;&gt;MarketModule</title>
<path fill="none" stroke="black" d="M168.06,-84.91C168.06,-84.91 168.06,-103.79 168.06,-103.79"/>
<polygon fill="black" stroke="black" points="164.56,-103.79 168.06,-113.79 171.56,-103.79 164.56,-103.79"/>
</g>
<!-- SharedModule -->
<g id="node3" class="node">
<title>SharedModule</title>
<polygon fill="#8dd3c7" stroke="black" points="122.43,-84.8 119.43,-88.8 98.43,-88.8 95.43,-84.8 23.57,-84.8 23.57,-48.8 122.43,-48.8 122.43,-84.8"/>
<text text-anchor="middle" x="73" y="-62.6" font-family="Times,serif" font-size="14.00">SharedModule</text>
</g>
<!-- SharedModule&#45;&gt;MarketModule -->
<g id="edge2" class="edge">
<title>SharedModule&#45;&gt;MarketModule</title>
<path fill="none" stroke="black" d="M106.11,-84.91C106.11,-84.91 106.11,-103.79 106.11,-103.79"/>
<polygon fill="black" stroke="black" points="102.61,-103.79 106.11,-113.79 109.61,-103.79 102.61,-103.79"/>
</g>
</g>
</svg>
