<?xml version="1.0" encoding="UTF-8" standalone="no"?>
<!DOCTYPE svg PUBLIC "-//W3C//DTD SVG 1.1//EN"
 "http://www.w3.org/Graphics/SVG/1.1/DTD/svg11.dtd">
<!-- Generated by graphviz version 5.0.0 (20220707.1540)
 -->
<!-- Title: dependencies Pages: 1 -->
<svg width="304pt" height="247pt"
 viewBox="0.00 0.00 304.00 246.80" xmlns="http://www.w3.org/2000/svg" xmlns:xlink="http://www.w3.org/1999/xlink">
<g id="graph0" class="graph" transform="scale(1 1) rotate(0) translate(4 242.8)">
<title>dependencies</title>
<polygon fill="white" stroke="transparent" points="-4,4 -4,-242.8 300,-242.8 300,4 -4,4"/>
<text text-anchor="middle" x="148" y="-8.2" font-family="sans-serif" font-size="14.00">dependencies</text>
<g id="clust1" class="cluster">
<title>cluster_ToolbarModule</title>
<polygon fill="none" stroke="black" stroke-dasharray="1,5" points="8,-32.8 8,-230.8 288,-230.8 288,-32.8 8,-32.8"/>
</g>
<g id="clust5" class="cluster">
<title>cluster_ToolbarModule_exports</title>
<polygon fill="none" stroke="black" points="75,-170.8 75,-222.8 221,-222.8 221,-170.8 75,-170.8"/>
</g>
<g id="clust4" class="cluster">
<title>cluster_ToolbarModule_imports</title>
<polygon fill="none" stroke="black" points="166,-40.8 166,-92.8 280,-92.8 280,-40.8 166,-40.8"/>
</g>
<g id="clust2" class="cluster">
<title>cluster_ToolbarModule_declarations</title>
<polygon fill="none" stroke="black" points="16,-40.8 16,-92.8 158,-92.8 158,-40.8 16,-40.8"/>
</g>
<!-- ToolbarComponent -->
<g id="node1" class="node">
<title>ToolbarComponent</title>
<polygon fill="#ffffb3" stroke="black" points="149.65,-84.8 24.35,-84.8 24.35,-48.8 149.65,-48.8 149.65,-84.8"/>
<text text-anchor="middle" x="87" y="-62.6" font-family="Times,serif" font-size="14.00">ToolbarComponent</text>
</g>
<!-- ToolbarModule -->
<g id="node2" class="node">
<title>ToolbarModule</title>
<polygon fill="#8dd3c7" stroke="black" points="199.87,-149.8 196.87,-153.8 175.87,-153.8 172.87,-149.8 96.13,-149.8 96.13,-113.8 199.87,-113.8 199.87,-149.8"/>
<text text-anchor="middle" x="148" y="-127.6" font-family="Times,serif" font-size="14.00">ToolbarModule</text>
</g>
<!-- ToolbarComponent&#45;&gt;ToolbarModule -->
<g id="edge1" class="edge">
<title>ToolbarComponent&#45;&gt;ToolbarModule</title>
<path fill="none" stroke="black" d="M122.94,-84.91C122.94,-84.91 122.94,-103.79 122.94,-103.79"/>
<polygon fill="black" stroke="black" points="119.44,-103.79 122.94,-113.79 126.44,-103.79 119.44,-103.79"/>
</g>
<!-- ToolbarComponent  -->
<g id="node4" class="node">
<title>ToolbarComponent </title>
<polygon fill="#fb8072" stroke="black" points="212.65,-214.8 83.35,-214.8 83.35,-178.8 212.65,-178.8 212.65,-214.8"/>
<text text-anchor="middle" x="148" y="-192.6" font-family="Times,serif" font-size="14.00">ToolbarComponent </text>
</g>
<!-- ToolbarModule&#45;&gt;ToolbarComponent  -->
<g id="edge3" class="edge">
<title>ToolbarModule&#45;&gt;ToolbarComponent </title>
<path fill="none" stroke="black" stroke-dasharray="5,2" d="M148,-149.91C148,-149.91 148,-168.79 148,-168.79"/>
<polygon fill="black" stroke="black" points="144.5,-168.79 148,-178.79 151.5,-168.79 144.5,-168.79"/>
</g>
<!-- SharedModule -->
<g id="node3" class="node">
<title>SharedModule</title>
<polygon fill="#8dd3c7" stroke="black" points="272.43,-84.8 269.43,-88.8 248.43,-88.8 245.43,-84.8 173.57,-84.8 173.57,-48.8 272.43,-48.8 272.43,-84.8"/>
<text text-anchor="middle" x="223" y="-62.6" font-family="Times,serif" font-size="14.00">SharedModule</text>
</g>
<!-- SharedModule&#45;&gt;ToolbarModule -->
<g id="edge2" class="edge">
<title>SharedModule&#45;&gt;ToolbarModule</title>
<path fill="none" stroke="black" d="M186.86,-84.91C186.86,-84.91 186.86,-103.79 186.86,-103.79"/>
<polygon fill="black" stroke="black" points="183.36,-103.79 186.86,-113.79 190.36,-103.79 183.36,-103.79"/>
</g>
</g>
</svg>
