<?xml version="1.0" encoding="UTF-8" standalone="no"?>
<!DOCTYPE svg PUBLIC "-//W3C//DTD SVG 1.1//EN"
 "http://www.w3.org/Graphics/SVG/1.1/DTD/svg11.dtd">
<!-- Generated by graphviz version 5.0.0 (20220707.1540)
 -->
<!-- Title: dependencies Pages: 1 -->
<svg width="292pt" height="247pt"
 viewBox="0.00 0.00 292.00 246.80" xmlns="http://www.w3.org/2000/svg" xmlns:xlink="http://www.w3.org/1999/xlink">
<g id="graph0" class="graph" transform="scale(1 1) rotate(0) translate(4 242.8)">
<title>dependencies</title>
<polygon fill="white" stroke="transparent" points="-4,4 -4,-242.8 288,-242.8 288,4 -4,4"/>
<text text-anchor="middle" x="142" y="-8.2" font-family="sans-serif" font-size="14.00">dependencies</text>
<g id="clust1" class="cluster">
<title>cluster_LoginModule</title>
<polygon fill="none" stroke="black" stroke-dasharray="1,5" points="8,-32.8 8,-230.8 276,-230.8 276,-32.8 8,-32.8"/>
</g>
<g id="clust4" class="cluster">
<title>cluster_LoginModule_imports</title>
<polygon fill="none" stroke="black" points="154,-40.8 154,-92.8 268,-92.8 268,-40.8 154,-40.8"/>
</g>
<g id="clust5" class="cluster">
<title>cluster_LoginModule_exports</title>
<polygon fill="none" stroke="black" points="75,-170.8 75,-222.8 209,-222.8 209,-170.8 75,-170.8"/>
</g>
<g id="clust2" class="cluster">
<title>cluster_LoginModule_declarations</title>
<polygon fill="none" stroke="black" points="16,-40.8 16,-92.8 146,-92.8 146,-40.8 16,-40.8"/>
</g>
<!-- LoginComponent -->
<g id="node1" class="node">
<title>LoginComponent</title>
<polygon fill="#ffffb3" stroke="black" points="138.27,-84.8 23.73,-84.8 23.73,-48.8 138.27,-48.8 138.27,-84.8"/>
<text text-anchor="middle" x="81" y="-62.6" font-family="Times,serif" font-size="14.00">LoginComponent</text>
</g>
<!-- LoginModule -->
<g id="node2" class="node">
<title>LoginModule</title>
<polygon fill="#8dd3c7" stroke="black" points="188.49,-149.8 185.49,-153.8 164.49,-153.8 161.49,-149.8 95.51,-149.8 95.51,-113.8 188.49,-113.8 188.49,-149.8"/>
<text text-anchor="middle" x="142" y="-127.6" font-family="Times,serif" font-size="14.00">LoginModule</text>
</g>
<!-- LoginComponent&#45;&gt;LoginModule -->
<g id="edge1" class="edge">
<title>LoginComponent&#45;&gt;LoginModule</title>
<path fill="none" stroke="black" d="M116.94,-84.91C116.94,-84.91 116.94,-103.79 116.94,-103.79"/>
<polygon fill="black" stroke="black" points="113.44,-103.79 116.94,-113.79 120.44,-103.79 113.44,-103.79"/>
</g>
<!-- LoginComponent  -->
<g id="node4" class="node">
<title>LoginComponent </title>
<polygon fill="#fb8072" stroke="black" points="201.27,-214.8 82.73,-214.8 82.73,-178.8 201.27,-178.8 201.27,-214.8"/>
<text text-anchor="middle" x="142" y="-192.6" font-family="Times,serif" font-size="14.00">LoginComponent </text>
</g>
<!-- LoginModule&#45;&gt;LoginComponent  -->
<g id="edge3" class="edge">
<title>LoginModule&#45;&gt;LoginComponent </title>
<path fill="none" stroke="black" stroke-dasharray="5,2" d="M142,-149.91C142,-149.91 142,-168.79 142,-168.79"/>
<polygon fill="black" stroke="black" points="138.5,-168.79 142,-178.79 145.5,-168.79 138.5,-168.79"/>
</g>
<!-- SharedModule -->
<g id="node3" class="node">
<title>SharedModule</title>
<polygon fill="#8dd3c7" stroke="black" points="260.43,-84.8 257.43,-88.8 236.43,-88.8 233.43,-84.8 161.57,-84.8 161.57,-48.8 260.43,-48.8 260.43,-84.8"/>
<text text-anchor="middle" x="211" y="-62.6" font-family="Times,serif" font-size="14.00">SharedModule</text>
</g>
<!-- SharedModule&#45;&gt;LoginModule -->
<g id="edge2" class="edge">
<title>SharedModule&#45;&gt;LoginModule</title>
<path fill="none" stroke="black" d="M175.14,-84.91C175.14,-84.91 175.14,-103.79 175.14,-103.79"/>
<polygon fill="black" stroke="black" points="171.64,-103.79 175.14,-113.79 178.64,-103.79 171.64,-103.79"/>
</g>
</g>
</svg>
