<?xml version="1.0" encoding="UTF-8" standalone="no"?>
<!DOCTYPE svg PUBLIC "-//W3C//DTD SVG 1.1//EN"
 "http://www.w3.org/Graphics/SVG/1.1/DTD/svg11.dtd">
<!-- Generated by graphviz version 5.0.0 (20220707.1540)
 -->
<!-- Title: dependencies Pages: 1 -->
<svg width="174pt" height="174pt"
 viewBox="0.00 0.00 174.00 173.80" xmlns="http://www.w3.org/2000/svg" xmlns:xlink="http://www.w3.org/1999/xlink">
<g id="graph0" class="graph" transform="scale(1 1) rotate(0) translate(4 169.8)">
<title>dependencies</title>
<polygon fill="white" stroke="transparent" points="-4,4 -4,-169.8 170,-169.8 170,4 -4,4"/>
<text text-anchor="middle" x="83" y="-8.2" font-family="sans-serif" font-size="14.00">dependencies</text>
<g id="clust1" class="cluster">
<title>cluster_VerifyModule</title>
<polygon fill="none" stroke="black" stroke-dasharray="1,5" points="8,-32.8 8,-157.8 158,-157.8 158,-32.8 8,-32.8"/>
</g>
<g id="clust2" class="cluster">
<title>cluster_VerifyModule_declarations</title>
<polygon fill="none" stroke="black" points="16,-40.8 16,-92.8 150,-92.8 150,-40.8 16,-40.8"/>
</g>
<!-- VerifyComponent -->
<g id="node1" class="node">
<title>VerifyComponent</title>
<polygon fill="#ffffb3" stroke="black" points="141.87,-84.8 24.13,-84.8 24.13,-48.8 141.87,-48.8 141.87,-84.8"/>
<text text-anchor="middle" x="83" y="-62.6" font-family="Times,serif" font-size="14.00">VerifyComponent</text>
</g>
<!-- VerifyModule -->
<g id="node2" class="node">
<title>VerifyModule</title>
<polygon fill="#8dd3c7" stroke="black" points="131.09,-149.8 128.09,-153.8 107.09,-153.8 104.09,-149.8 34.91,-149.8 34.91,-113.8 131.09,-113.8 131.09,-149.8"/>
<text text-anchor="middle" x="83" y="-127.6" font-family="Times,serif" font-size="14.00">VerifyModule</text>
</g>
<!-- VerifyComponent&#45;&gt;VerifyModule -->
<g id="edge1" class="edge">
<title>VerifyComponent&#45;&gt;VerifyModule</title>
<path fill="none" stroke="black" d="M83,-84.91C83,-84.91 83,-103.79 83,-103.79"/>
<polygon fill="black" stroke="black" points="79.5,-103.79 83,-113.79 86.5,-103.79 79.5,-103.79"/>
</g>
</g>
</svg>
