<?xml version="1.0" encoding="UTF-8" standalone="no"?>
<!DOCTYPE svg PUBLIC "-//W3C//DTD SVG 1.1//EN"
 "http://www.w3.org/Graphics/SVG/1.1/DTD/svg11.dtd">
<!-- Generated by graphviz version 5.0.0 (20220707.1540)
 -->
<!-- Title: dependencies Pages: 1 -->
<svg width="1126pt" height="174pt"
 viewBox="0.00 0.00 1126.00 173.80" xmlns="http://www.w3.org/2000/svg" xmlns:xlink="http://www.w3.org/1999/xlink">
<g id="graph0" class="graph" transform="scale(1 1) rotate(0) translate(4 169.8)">
<title>dependencies</title>
<polygon fill="white" stroke="transparent" points="-4,4 -4,-169.8 1122,-169.8 1122,4 -4,4"/>
<text text-anchor="middle" x="559" y="-8.2" font-family="sans-serif" font-size="14.00">dependencies</text>
<g id="clust1" class="cluster">
<title>cluster_LegalModule</title>
<polygon fill="none" stroke="black" stroke-dasharray="1,5" points="8,-32.8 8,-157.8 1110,-157.8 1110,-32.8 8,-32.8"/>
</g>
<g id="clust10" class="cluster">
<title>cluster_LegalModule_imports</title>
<polygon fill="none" stroke="black" points="988,-40.8 988,-92.8 1102,-92.8 1102,-40.8 988,-40.8"/>
</g>
<g id="clust2" class="cluster">
<title>cluster_LegalModule_declarations</title>
<polygon fill="none" stroke="black" points="16,-40.8 16,-92.8 980,-92.8 980,-40.8 16,-40.8"/>
</g>
<!-- DataComponent -->
<g id="node1" class="node">
<title>DataComponent</title>
<polygon fill="#ffffb3" stroke="black" points="971.76,-84.8 864.24,-84.8 864.24,-48.8 971.76,-48.8 971.76,-84.8"/>
<text text-anchor="middle" x="918" y="-62.6" font-family="Times,serif" font-size="14.00">DataComponent</text>
</g>
<!-- LegalModule -->
<g id="node8" class="node">
<title>LegalModule</title>
<polygon fill="#8dd3c7" stroke="black" points="639.92,-149.8 636.92,-153.8 615.92,-153.8 612.92,-149.8 548.08,-149.8 548.08,-113.8 639.92,-113.8 639.92,-149.8"/>
<text text-anchor="middle" x="594" y="-127.6" font-family="Times,serif" font-size="14.00">LegalModule</text>
</g>
<!-- DataComponent&#45;&gt;LegalModule -->
<g id="edge1" class="edge">
<title>DataComponent&#45;&gt;LegalModule</title>
<path fill="none" stroke="black" d="M918,-84.91C918,-104.14 918,-131.8 918,-131.8 918,-131.8 649.73,-131.8 649.73,-131.8"/>
<polygon fill="black" stroke="black" points="649.73,-128.3 639.73,-131.8 649.73,-135.3 649.73,-128.3"/>
</g>
<!-- DmcaComponent -->
<g id="node2" class="node">
<title>DmcaComponent</title>
<polygon fill="#ffffb3" stroke="black" points="846.26,-84.8 731.74,-84.8 731.74,-48.8 846.26,-48.8 846.26,-84.8"/>
<text text-anchor="middle" x="789" y="-62.6" font-family="Times,serif" font-size="14.00">DmcaComponent</text>
</g>
<!-- DmcaComponent&#45;&gt;LegalModule -->
<g id="edge2" class="edge">
<title>DmcaComponent&#45;&gt;LegalModule</title>
<path fill="none" stroke="black" d="M789,-84.83C789,-101.2 789,-122.8 789,-122.8 789,-122.8 649.72,-122.8 649.72,-122.8"/>
<polygon fill="black" stroke="black" points="649.72,-119.3 639.72,-122.8 649.72,-126.3 649.72,-119.3"/>
</g>
<!-- GdprComponent -->
<g id="node3" class="node">
<title>GdprComponent</title>
<polygon fill="#ffffb3" stroke="black" points="714.1,-84.8 603.9,-84.8 603.9,-48.8 714.1,-48.8 714.1,-84.8"/>
<text text-anchor="middle" x="659" y="-62.6" font-family="Times,serif" font-size="14.00">GdprComponent</text>
</g>
<!-- GdprComponent&#45;&gt;LegalModule -->
<g id="edge3" class="edge">
<title>GdprComponent&#45;&gt;LegalModule</title>
<path fill="none" stroke="black" d="M621.83,-84.91C621.83,-84.91 621.83,-103.79 621.83,-103.79"/>
<polygon fill="black" stroke="black" points="618.33,-103.79 621.83,-113.79 625.33,-103.79 618.33,-103.79"/>
</g>
<!-- LegalComponent -->
<g id="node4" class="node">
<title>LegalComponent</title>
<polygon fill="#ffffb3" stroke="black" points="585.7,-84.8 472.3,-84.8 472.3,-48.8 585.7,-48.8 585.7,-84.8"/>
<text text-anchor="middle" x="529" y="-62.6" font-family="Times,serif" font-size="14.00">LegalComponent</text>
</g>
<!-- LegalComponent&#45;&gt;LegalModule -->
<g id="edge4" class="edge">
<title>LegalComponent&#45;&gt;LegalModule</title>
<path fill="none" stroke="black" d="M566.94,-84.91C566.94,-84.91 566.94,-103.79 566.94,-103.79"/>
<polygon fill="black" stroke="black" points="563.44,-103.79 566.94,-113.79 570.44,-103.79 563.44,-103.79"/>
</g>
<!-- MembershipComponent -->
<g id="node5" class="node">
<title>MembershipComponent</title>
<polygon fill="#ffffb3" stroke="black" points="454.1,-84.8 301.9,-84.8 301.9,-48.8 454.1,-48.8 454.1,-84.8"/>
<text text-anchor="middle" x="378" y="-62.6" font-family="Times,serif" font-size="14.00">MembershipComponent</text>
</g>
<!-- MembershipComponent&#45;&gt;LegalModule -->
<g id="edge5" class="edge">
<title>MembershipComponent&#45;&gt;LegalModule</title>
<path fill="none" stroke="black" d="M378,-84.83C378,-101.2 378,-122.8 378,-122.8 378,-122.8 538.19,-122.8 538.19,-122.8"/>
<polygon fill="black" stroke="black" points="538.19,-126.3 548.19,-122.8 538.19,-119.3 538.19,-126.3"/>
</g>
<!-- PrivacyComponent -->
<g id="node6" class="node">
<title>PrivacyComponent</title>
<polygon fill="#ffffb3" stroke="black" points="284.1,-84.8 159.9,-84.8 159.9,-48.8 284.1,-48.8 284.1,-84.8"/>
<text text-anchor="middle" x="222" y="-62.6" font-family="Times,serif" font-size="14.00">PrivacyComponent</text>
</g>
<!-- PrivacyComponent&#45;&gt;LegalModule -->
<g id="edge6" class="edge">
<title>PrivacyComponent&#45;&gt;LegalModule</title>
<path fill="none" stroke="black" d="M222,-84.91C222,-104.14 222,-131.8 222,-131.8 222,-131.8 538.01,-131.8 538.01,-131.8"/>
<polygon fill="black" stroke="black" points="538.01,-135.3 548.01,-131.8 538.01,-128.3 538.01,-135.3"/>
</g>
<!-- TermsComponent -->
<g id="node7" class="node">
<title>TermsComponent</title>
<polygon fill="#ffffb3" stroke="black" points="141.6,-84.8 24.4,-84.8 24.4,-48.8 141.6,-48.8 141.6,-84.8"/>
<text text-anchor="middle" x="83" y="-62.6" font-family="Times,serif" font-size="14.00">TermsComponent</text>
</g>
<!-- TermsComponent&#45;&gt;LegalModule -->
<g id="edge7" class="edge">
<title>TermsComponent&#45;&gt;LegalModule</title>
<path fill="none" stroke="black" d="M83,-85.09C83,-107.01 83,-140.8 83,-140.8 83,-140.8 538.2,-140.8 538.2,-140.8"/>
<polygon fill="black" stroke="black" points="538.2,-144.3 548.2,-140.8 538.2,-137.3 538.2,-144.3"/>
</g>
<!-- SharedModule -->
<g id="node9" class="node">
<title>SharedModule</title>
<polygon fill="#8dd3c7" stroke="black" points="1094.43,-84.8 1091.43,-88.8 1070.43,-88.8 1067.43,-84.8 995.57,-84.8 995.57,-48.8 1094.43,-48.8 1094.43,-84.8"/>
<text text-anchor="middle" x="1045" y="-62.6" font-family="Times,serif" font-size="14.00">SharedModule</text>
</g>
<!-- SharedModule&#45;&gt;LegalModule -->
<g id="edge8" class="edge">
<title>SharedModule&#45;&gt;LegalModule</title>
<path fill="none" stroke="black" d="M1045,-85.09C1045,-107.01 1045,-140.8 1045,-140.8 1045,-140.8 649.73,-140.8 649.73,-140.8"/>
<polygon fill="black" stroke="black" points="649.73,-137.3 639.73,-140.8 649.73,-144.3 649.73,-137.3"/>
</g>
</g>
</svg>
