<?xml version="1.0" encoding="UTF-8" standalone="no"?>
<!DOCTYPE svg PUBLIC "-//W3C//DTD SVG 1.1//EN"
 "http://www.w3.org/Graphics/SVG/1.1/DTD/svg11.dtd">
<!-- Generated by graphviz version 5.0.0 (20220707.1540)
 -->
<!-- Title: dependencies Pages: 1 -->
<svg width="422pt" height="247pt"
 viewBox="0.00 0.00 422.00 246.80" xmlns="http://www.w3.org/2000/svg" xmlns:xlink="http://www.w3.org/1999/xlink">
<g id="graph0" class="graph" transform="scale(1 1) rotate(0) translate(4 242.8)">
<title>dependencies</title>
<polygon fill="white" stroke="transparent" points="-4,4 -4,-242.8 418,-242.8 418,4 -4,4"/>
<text text-anchor="middle" x="207" y="-8.2" font-family="sans-serif" font-size="14.00">dependencies</text>
<g id="clust1" class="cluster">
<title>cluster_HomeModule</title>
<polygon fill="none" stroke="black" stroke-dasharray="1,5" points="8,-32.8 8,-230.8 406,-230.8 406,-32.8 8,-32.8"/>
</g>
<g id="clust6" class="cluster">
<title>cluster_HomeModule_exports</title>
<polygon fill="none" stroke="black" points="142,-170.8 142,-222.8 278,-222.8 278,-170.8 142,-170.8"/>
</g>
<g id="clust5" class="cluster">
<title>cluster_HomeModule_imports</title>
<polygon fill="none" stroke="black" points="284,-40.8 284,-92.8 398,-92.8 398,-40.8 284,-40.8"/>
</g>
<g id="clust2" class="cluster">
<title>cluster_HomeModule_declarations</title>
<polygon fill="none" stroke="black" points="16,-40.8 16,-92.8 276,-92.8 276,-40.8 16,-40.8"/>
</g>
<!-- HomeComponent -->
<g id="node1" class="node">
<title>HomeComponent</title>
<polygon fill="#ffffb3" stroke="black" points="267.55,-84.8 152.45,-84.8 152.45,-48.8 267.55,-48.8 267.55,-84.8"/>
<text text-anchor="middle" x="210" y="-62.6" font-family="Times,serif" font-size="14.00">HomeComponent</text>
</g>
<!-- HomeModule -->
<g id="node3" class="node">
<title>HomeModule</title>
<polygon fill="#8dd3c7" stroke="black" points="256.77,-149.8 253.77,-153.8 232.77,-153.8 229.77,-149.8 163.23,-149.8 163.23,-113.8 256.77,-113.8 256.77,-149.8"/>
<text text-anchor="middle" x="210" y="-127.6" font-family="Times,serif" font-size="14.00">HomeModule</text>
</g>
<!-- HomeComponent&#45;&gt;HomeModule -->
<g id="edge1" class="edge">
<title>HomeComponent&#45;&gt;HomeModule</title>
<path fill="none" stroke="black" d="M210,-84.91C210,-84.91 210,-103.79 210,-103.79"/>
<polygon fill="black" stroke="black" points="206.5,-103.79 210,-113.79 213.5,-103.79 206.5,-103.79"/>
</g>
<!-- PostsComponent -->
<g id="node2" class="node">
<title>PostsComponent</title>
<polygon fill="#ffffb3" stroke="black" points="134.4,-84.8 23.6,-84.8 23.6,-48.8 134.4,-48.8 134.4,-84.8"/>
<text text-anchor="middle" x="79" y="-62.6" font-family="Times,serif" font-size="14.00">PostsComponent</text>
</g>
<!-- PostsComponent&#45;&gt;HomeModule -->
<g id="edge2" class="edge">
<title>PostsComponent&#45;&gt;HomeModule</title>
<path fill="none" stroke="black" d="M79,-84.91C79,-104.14 79,-131.8 79,-131.8 79,-131.8 153.08,-131.8 153.08,-131.8"/>
<polygon fill="black" stroke="black" points="153.08,-135.3 163.08,-131.8 153.08,-128.3 153.08,-135.3"/>
</g>
<!-- HomeComponent  -->
<g id="node5" class="node">
<title>HomeComponent </title>
<polygon fill="#fb8072" stroke="black" points="269.54,-214.8 150.46,-214.8 150.46,-178.8 269.54,-178.8 269.54,-214.8"/>
<text text-anchor="middle" x="210" y="-192.6" font-family="Times,serif" font-size="14.00">HomeComponent </text>
</g>
<!-- HomeModule&#45;&gt;HomeComponent  -->
<g id="edge4" class="edge">
<title>HomeModule&#45;&gt;HomeComponent </title>
<path fill="none" stroke="black" stroke-dasharray="5,2" d="M210,-149.91C210,-149.91 210,-168.79 210,-168.79"/>
<polygon fill="black" stroke="black" points="206.5,-168.79 210,-178.79 213.5,-168.79 206.5,-168.79"/>
</g>
<!-- SharedModule -->
<g id="node4" class="node">
<title>SharedModule</title>
<polygon fill="#8dd3c7" stroke="black" points="390.43,-84.8 387.43,-88.8 366.43,-88.8 363.43,-84.8 291.57,-84.8 291.57,-48.8 390.43,-48.8 390.43,-84.8"/>
<text text-anchor="middle" x="341" y="-62.6" font-family="Times,serif" font-size="14.00">SharedModule</text>
</g>
<!-- SharedModule&#45;&gt;HomeModule -->
<g id="edge3" class="edge">
<title>SharedModule&#45;&gt;HomeModule</title>
<path fill="none" stroke="black" d="M341,-84.91C341,-104.14 341,-131.8 341,-131.8 341,-131.8 266.92,-131.8 266.92,-131.8"/>
<polygon fill="black" stroke="black" points="266.92,-128.3 256.92,-131.8 266.92,-135.3 266.92,-128.3"/>
</g>
</g>
</svg>
