<?xml version="1.0" encoding="UTF-8" standalone="no"?>
<!DOCTYPE svg PUBLIC "-//W3C//DTD SVG 1.1//EN"
 "http://www.w3.org/Graphics/SVG/1.1/DTD/svg11.dtd">
<!-- Generated by graphviz version 5.0.0 (20220707.1540)
 -->
<!-- Title: dependencies Pages: 1 -->
<svg width="672pt" height="247pt"
 viewBox="0.00 0.00 672.00 246.80" xmlns="http://www.w3.org/2000/svg" xmlns:xlink="http://www.w3.org/1999/xlink">
<g id="graph0" class="graph" transform="scale(1 1) rotate(0) translate(4 242.8)">
<title>dependencies</title>
<polygon fill="white" stroke="transparent" points="-4,4 -4,-242.8 668,-242.8 668,4 -4,4"/>
<text text-anchor="middle" x="332" y="-8.2" font-family="sans-serif" font-size="14.00">dependencies</text>
<g id="clust1" class="cluster">
<title>cluster_AppModule</title>
<polygon fill="none" stroke="black" stroke-dasharray="1,5" points="8,-32.8 8,-230.8 656,-230.8 656,-32.8 8,-32.8"/>
</g>
<g id="clust4" class="cluster">
<title>cluster_AppModule_imports</title>
<polygon fill="none" stroke="black" points="312,-40.8 312,-92.8 648,-92.8 648,-40.8 312,-40.8"/>
</g>
<g id="clust6" class="cluster">
<title>cluster_AppModule_bootstrap</title>
<polygon fill="none" stroke="black" points="307,-170.8 307,-222.8 431,-222.8 431,-170.8 307,-170.8"/>
</g>
<g id="clust2" class="cluster">
<title>cluster_AppModule_declarations</title>
<polygon fill="none" stroke="black" points="182,-40.8 182,-92.8 304,-92.8 304,-40.8 182,-40.8"/>
</g>
<g id="clust7" class="cluster">
<title>cluster_AppModule_providers</title>
<polygon fill="none" stroke="black" points="16,-40.8 16,-92.8 174,-92.8 174,-40.8 16,-40.8"/>
</g>
<!-- AppComponent -->
<g id="node1" class="node">
<title>AppComponent</title>
<polygon fill="#ffffb3" stroke="black" points="295.94,-84.8 190.06,-84.8 190.06,-48.8 295.94,-48.8 295.94,-84.8"/>
<text text-anchor="middle" x="243" y="-62.6" font-family="Times,serif" font-size="14.00">AppComponent</text>
</g>
<!-- AppModule -->
<g id="node2" class="node">
<title>AppModule</title>
<polygon fill="#8dd3c7" stroke="black" points="410.66,-149.8 407.66,-153.8 386.66,-153.8 383.66,-149.8 327.34,-149.8 327.34,-113.8 410.66,-113.8 410.66,-149.8"/>
<text text-anchor="middle" x="369" y="-127.6" font-family="Times,serif" font-size="14.00">AppModule</text>
</g>
<!-- AppComponent&#45;&gt;AppModule -->
<g id="edge1" class="edge">
<title>AppComponent&#45;&gt;AppModule</title>
<path fill="none" stroke="black" d="M243,-84.82C243,-102.17 243,-125.8 243,-125.8 243,-125.8 317.04,-125.8 317.04,-125.8"/>
<polygon fill="black" stroke="black" points="317.04,-129.3 327.04,-125.8 317.04,-122.3 317.04,-129.3"/>
</g>
<!-- AppComponent  -->
<g id="node6" class="node">
<title>AppComponent </title>
<polygon fill="#80b1d3" stroke="black" points="423.44,-214.8 314.56,-214.8 314.56,-178.8 423.44,-178.8 423.44,-214.8"/>
<text text-anchor="middle" x="369" y="-192.6" font-family="Times,serif" font-size="14.00">AppComponent </text>
</g>
<!-- AppModule&#45;&gt;AppComponent  -->
<g id="edge5" class="edge">
<title>AppModule&#45;&gt;AppComponent </title>
<path fill="none" stroke="black" stroke-dasharray="1,5" d="M369,-149.91C369,-149.91 369,-168.79 369,-168.79"/>
<polygon fill="black" stroke="black" points="365.5,-168.79 369,-178.79 372.5,-168.79 365.5,-168.79"/>
</g>
<!-- CoreModule -->
<g id="node3" class="node">
<title>CoreModule</title>
<polygon fill="#8dd3c7" stroke="black" points="640.27,-84.8 637.27,-88.8 616.27,-88.8 613.27,-84.8 553.73,-84.8 553.73,-48.8 640.27,-48.8 640.27,-84.8"/>
<text text-anchor="middle" x="597" y="-62.6" font-family="Times,serif" font-size="14.00">CoreModule</text>
</g>
<!-- CoreModule&#45;&gt;AppModule -->
<g id="edge2" class="edge">
<title>CoreModule&#45;&gt;AppModule</title>
<path fill="none" stroke="black" d="M597,-85.08C597,-106.12 597,-137.8 597,-137.8 597,-137.8 420.82,-137.8 420.82,-137.8"/>
<polygon fill="black" stroke="black" points="420.82,-134.3 410.82,-137.8 420.82,-141.3 420.82,-134.3"/>
</g>
<!-- LayoutModule -->
<g id="node4" class="node">
<title>LayoutModule</title>
<polygon fill="#8dd3c7" stroke="black" points="535.71,-84.8 532.71,-88.8 511.71,-88.8 508.71,-84.8 436.29,-84.8 436.29,-48.8 535.71,-48.8 535.71,-84.8"/>
<text text-anchor="middle" x="486" y="-62.6" font-family="Times,serif" font-size="14.00">LayoutModule</text>
</g>
<!-- LayoutModule&#45;&gt;AppModule -->
<g id="edge3" class="edge">
<title>LayoutModule&#45;&gt;AppModule</title>
<path fill="none" stroke="black" d="M486,-84.82C486,-102.17 486,-125.8 486,-125.8 486,-125.8 420.91,-125.8 420.91,-125.8"/>
<polygon fill="black" stroke="black" points="420.91,-122.3 410.91,-125.8 420.91,-129.3 420.91,-122.3"/>
</g>
<!-- ThemeModule -->
<g id="node5" class="node">
<title>ThemeModule</title>
<polygon fill="#8dd3c7" stroke="black" points="418.42,-84.8 415.42,-88.8 394.42,-88.8 391.42,-84.8 319.58,-84.8 319.58,-48.8 418.42,-48.8 418.42,-84.8"/>
<text text-anchor="middle" x="369" y="-62.6" font-family="Times,serif" font-size="14.00">ThemeModule</text>
</g>
<!-- ThemeModule&#45;&gt;AppModule -->
<g id="edge4" class="edge">
<title>ThemeModule&#45;&gt;AppModule</title>
<path fill="none" stroke="black" d="M369,-84.91C369,-84.91 369,-103.79 369,-103.79"/>
<polygon fill="black" stroke="black" points="365.5,-103.79 369,-113.79 372.5,-103.79 365.5,-103.79"/>
</g>
<!-- SidenavService -->
<g id="node7" class="node">
<title>SidenavService</title>
<ellipse fill="#fdb462" stroke="black" cx="95" cy="-66.8" rx="71.21" ry="18"/>
<text text-anchor="middle" x="95" y="-62.6" font-family="Times,serif" font-size="14.00">SidenavService</text>
</g>
<!-- SidenavService&#45;&gt;AppModule -->
<g id="edge6" class="edge">
<title>SidenavService&#45;&gt;AppModule</title>
<path fill="none" stroke="black" d="M95,-85.08C95,-106.12 95,-137.8 95,-137.8 95,-137.8 317.09,-137.8 317.09,-137.8"/>
<polygon fill="black" stroke="black" points="317.09,-141.3 327.09,-137.8 317.09,-134.3 317.09,-141.3"/>
</g>
</g>
</svg>
