<?xml version="1.0" encoding="UTF-8" standalone="no"?>
<!DOCTYPE svg PUBLIC "-//W3C//DTD SVG 1.1//EN"
 "http://www.w3.org/Graphics/SVG/1.1/DTD/svg11.dtd">
<!-- Generated by graphviz version 5.0.0 (20220707.1540)
 -->
<!-- Title: dependencies Pages: 1 -->
<svg width="540pt" height="247pt"
 viewBox="0.00 0.00 540.00 246.80" xmlns="http://www.w3.org/2000/svg" xmlns:xlink="http://www.w3.org/1999/xlink">
<g id="graph0" class="graph" transform="scale(1 1) rotate(0) translate(4 242.8)">
<title>dependencies</title>
<polygon fill="white" stroke="transparent" points="-4,4 -4,-242.8 536,-242.8 536,4 -4,4"/>
<text text-anchor="middle" x="266" y="-8.2" font-family="sans-serif" font-size="14.00">dependencies</text>
<g id="clust1" class="cluster">
<title>cluster_LayoutModule</title>
<polygon fill="none" stroke="black" stroke-dasharray="1,5" points="8,-32.8 8,-230.8 524,-230.8 524,-32.8 8,-32.8"/>
</g>
<g id="clust2" class="cluster">
<title>cluster_LayoutModule_declarations</title>
<polygon fill="none" stroke="black" points="380,-40.8 380,-92.8 516,-92.8 516,-40.8 380,-40.8"/>
</g>
<g id="clust4" class="cluster">
<title>cluster_LayoutModule_imports</title>
<polygon fill="none" stroke="black" points="16,-40.8 16,-92.8 372,-92.8 372,-40.8 16,-40.8"/>
</g>
<g id="clust5" class="cluster">
<title>cluster_LayoutModule_exports</title>
<polygon fill="none" stroke="black" points="71,-170.8 71,-222.8 461,-222.8 461,-170.8 71,-170.8"/>
</g>
<!-- LayoutComponent -->
<g id="node1" class="node">
<title>LayoutComponent</title>
<polygon fill="#ffffb3" stroke="black" points="508.49,-84.8 387.51,-84.8 387.51,-48.8 508.49,-48.8 508.49,-84.8"/>
<text text-anchor="middle" x="448" y="-62.6" font-family="Times,serif" font-size="14.00">LayoutComponent</text>
</g>
<!-- LayoutModule -->
<g id="node2" class="node">
<title>LayoutModule</title>
<polygon fill="#8dd3c7" stroke="black" points="307.71,-149.8 304.71,-153.8 283.71,-153.8 280.71,-149.8 208.29,-149.8 208.29,-113.8 307.71,-113.8 307.71,-149.8"/>
<text text-anchor="middle" x="258" y="-127.6" font-family="Times,serif" font-size="14.00">LayoutModule</text>
</g>
<!-- LayoutComponent&#45;&gt;LayoutModule -->
<g id="edge1" class="edge">
<title>LayoutComponent&#45;&gt;LayoutModule</title>
<path fill="none" stroke="black" d="M420.38,-84.82C420.38,-102.17 420.38,-125.8 420.38,-125.8 420.38,-125.8 318.04,-125.8 318.04,-125.8"/>
<polygon fill="black" stroke="black" points="318.04,-122.3 308.04,-125.8 318.04,-129.3 318.04,-122.3"/>
</g>
<!-- LayoutComponent  -->
<g id="node6" class="node">
<title>LayoutComponent </title>
<polygon fill="#fb8072" stroke="black" points="453.49,-214.8 328.51,-214.8 328.51,-178.8 453.49,-178.8 453.49,-214.8"/>
<text text-anchor="middle" x="391" y="-192.6" font-family="Times,serif" font-size="14.00">LayoutComponent </text>
</g>
<!-- LayoutModule&#45;&gt;LayoutComponent  -->
<g id="edge5" class="edge">
<title>LayoutModule&#45;&gt;LayoutComponent </title>
<path fill="none" stroke="black" stroke-dasharray="5,2" d="M307.67,-137.8C327.84,-137.8 346.49,-137.8 346.49,-137.8 346.49,-137.8 346.49,-168.78 346.49,-168.78"/>
<polygon fill="black" stroke="black" points="342.99,-168.78 346.49,-178.78 349.99,-168.78 342.99,-168.78"/>
</g>
<!-- SidebarModule  -->
<g id="node7" class="node">
<title>SidebarModule </title>
<polygon fill="#fb8072" stroke="black" points="310.82,-214.8 205.18,-214.8 205.18,-178.8 310.82,-178.8 310.82,-214.8"/>
<text text-anchor="middle" x="258" y="-192.6" font-family="Times,serif" font-size="14.00">SidebarModule </text>
</g>
<!-- LayoutModule&#45;&gt;SidebarModule  -->
<g id="edge6" class="edge">
<title>LayoutModule&#45;&gt;SidebarModule </title>
<path fill="none" stroke="black" stroke-dasharray="5,2" d="M258,-149.91C258,-149.91 258,-168.79 258,-168.79"/>
<polygon fill="black" stroke="black" points="254.5,-168.79 258,-178.79 261.5,-168.79 254.5,-168.79"/>
</g>
<!-- ToolbarModule  -->
<g id="node8" class="node">
<title>ToolbarModule </title>
<polygon fill="#fb8072" stroke="black" points="186.87,-214.8 79.13,-214.8 79.13,-178.8 186.87,-178.8 186.87,-214.8"/>
<text text-anchor="middle" x="133" y="-192.6" font-family="Times,serif" font-size="14.00">ToolbarModule </text>
</g>
<!-- LayoutModule&#45;&gt;ToolbarModule  -->
<g id="edge7" class="edge">
<title>LayoutModule&#45;&gt;ToolbarModule </title>
<path fill="none" stroke="black" stroke-dasharray="5,2" d="M208.37,-137.8C186.76,-137.8 166.26,-137.8 166.26,-137.8 166.26,-137.8 166.26,-168.78 166.26,-168.78"/>
<polygon fill="black" stroke="black" points="162.76,-168.78 166.26,-178.78 169.76,-168.78 162.76,-168.78"/>
</g>
<!-- SharedModule -->
<g id="node3" class="node">
<title>SharedModule</title>
<polygon fill="#8dd3c7" stroke="black" points="364.43,-84.8 361.43,-88.8 340.43,-88.8 337.43,-84.8 265.57,-84.8 265.57,-48.8 364.43,-48.8 364.43,-84.8"/>
<text text-anchor="middle" x="315" y="-62.6" font-family="Times,serif" font-size="14.00">SharedModule</text>
</g>
<!-- SharedModule&#45;&gt;LayoutModule -->
<g id="edge2" class="edge">
<title>SharedModule&#45;&gt;LayoutModule</title>
<path fill="none" stroke="black" d="M286.69,-84.91C286.69,-84.91 286.69,-103.79 286.69,-103.79"/>
<polygon fill="black" stroke="black" points="283.19,-103.79 286.69,-113.79 290.19,-103.79 283.19,-103.79"/>
</g>
<!-- SidebarModule -->
<g id="node4" class="node">
<title>SidebarModule</title>
<polygon fill="#8dd3c7" stroke="black" points="248.32,-84.8 245.32,-88.8 224.32,-88.8 221.32,-84.8 145.68,-84.8 145.68,-48.8 248.32,-48.8 248.32,-84.8"/>
<text text-anchor="middle" x="197" y="-62.6" font-family="Times,serif" font-size="14.00">SidebarModule</text>
</g>
<!-- SidebarModule&#45;&gt;LayoutModule -->
<g id="edge3" class="edge">
<title>SidebarModule&#45;&gt;LayoutModule</title>
<path fill="none" stroke="black" d="M228.28,-84.91C228.28,-84.91 228.28,-103.79 228.28,-103.79"/>
<polygon fill="black" stroke="black" points="224.78,-103.79 228.28,-113.79 231.78,-103.79 224.78,-103.79"/>
</g>
<!-- ToolbarModule -->
<g id="node5" class="node">
<title>ToolbarModule</title>
<polygon fill="#8dd3c7" stroke="black" points="127.87,-84.8 124.87,-88.8 103.87,-88.8 100.87,-84.8 24.13,-84.8 24.13,-48.8 127.87,-48.8 127.87,-84.8"/>
<text text-anchor="middle" x="76" y="-62.6" font-family="Times,serif" font-size="14.00">ToolbarModule</text>
</g>
<!-- ToolbarModule&#45;&gt;LayoutModule -->
<g id="edge4" class="edge">
<title>ToolbarModule&#45;&gt;LayoutModule</title>
<path fill="none" stroke="black" d="M103.62,-84.82C103.62,-102.17 103.62,-125.8 103.62,-125.8 103.62,-125.8 198.31,-125.8 198.31,-125.8"/>
<polygon fill="black" stroke="black" points="198.31,-129.3 208.31,-125.8 198.3,-122.3 198.31,-129.3"/>
</g>
</g>
</svg>
