<?xml version="1.0" encoding="UTF-8" standalone="no"?>
<!DOCTYPE svg PUBLIC "-//W3C//DTD SVG 1.1//EN"
 "http://www.w3.org/Graphics/SVG/1.1/DTD/svg11.dtd">
<!-- Generated by graphviz version 5.0.0 (20220707.1540)
 -->
<!-- Title: dependencies Pages: 1 -->
<svg width="180pt" height="174pt"
 viewBox="0.00 0.00 180.00 173.80" xmlns="http://www.w3.org/2000/svg" xmlns:xlink="http://www.w3.org/1999/xlink">
<g id="graph0" class="graph" transform="scale(1 1) rotate(0) translate(4 169.8)">
<title>dependencies</title>
<polygon fill="white" stroke="transparent" points="-4,4 -4,-169.8 176,-169.8 176,4 -4,4"/>
<text text-anchor="middle" x="86" y="-8.2" font-family="sans-serif" font-size="14.00">dependencies</text>
<g id="clust1" class="cluster">
<title>cluster_PrivacyModule</title>
<polygon fill="none" stroke="black" stroke-dasharray="1,5" points="8,-32.8 8,-157.8 164,-157.8 164,-32.8 8,-32.8"/>
</g>
<g id="clust2" class="cluster">
<title>cluster_PrivacyModule_declarations</title>
<polygon fill="none" stroke="black" points="16,-40.8 16,-92.8 156,-92.8 156,-40.8 16,-40.8"/>
</g>
<!-- PrivacyComponent -->
<g id="node1" class="node">
<title>PrivacyComponent</title>
<polygon fill="#ffffb3" stroke="black" points="148.1,-84.8 23.9,-84.8 23.9,-48.8 148.1,-48.8 148.1,-84.8"/>
<text text-anchor="middle" x="86" y="-62.6" font-family="Times,serif" font-size="14.00">PrivacyComponent</text>
</g>
<!-- PrivacyModule -->
<g id="node2" class="node">
<title>PrivacyModule</title>
<polygon fill="#8dd3c7" stroke="black" points="137.32,-149.8 134.32,-153.8 113.32,-153.8 110.32,-149.8 34.68,-149.8 34.68,-113.8 137.32,-113.8 137.32,-149.8"/>
<text text-anchor="middle" x="86" y="-127.6" font-family="Times,serif" font-size="14.00">PrivacyModule</text>
</g>
<!-- PrivacyComponent&#45;&gt;PrivacyModule -->
<g id="edge1" class="edge">
<title>PrivacyComponent&#45;&gt;PrivacyModule</title>
<path fill="none" stroke="black" d="M86,-84.91C86,-84.91 86,-103.79 86,-103.79"/>
<polygon fill="black" stroke="black" points="82.5,-103.79 86,-113.79 89.5,-103.79 82.5,-103.79"/>
</g>
</g>
</svg>
