<?xml version="1.0" encoding="UTF-8" standalone="no"?>
<!DOCTYPE svg PUBLIC "-//W3C//DTD SVG 1.1//EN"
 "http://www.w3.org/Graphics/SVG/1.1/DTD/svg11.dtd">
<!-- Generated by graphviz version 5.0.0 (20220707.1540)
 -->
<!-- Title: dependencies Pages: 1 -->
<svg width="302pt" height="247pt"
 viewBox="0.00 0.00 302.00 246.80" xmlns="http://www.w3.org/2000/svg" xmlns:xlink="http://www.w3.org/1999/xlink">
<g id="graph0" class="graph" transform="scale(1 1) rotate(0) translate(4 242.8)">
<title>dependencies</title>
<polygon fill="white" stroke="transparent" points="-4,4 -4,-242.8 298,-242.8 298,4 -4,4"/>
<text text-anchor="middle" x="147" y="-8.2" font-family="sans-serif" font-size="14.00">dependencies</text>
<g id="clust1" class="cluster">
<title>cluster_SidebarModule</title>
<polygon fill="none" stroke="black" stroke-dasharray="1,5" points="8,-32.8 8,-230.8 286,-230.8 286,-32.8 8,-32.8"/>
</g>
<g id="clust4" class="cluster">
<title>cluster_SidebarModule_imports</title>
<polygon fill="none" stroke="black" points="164,-40.8 164,-92.8 278,-92.8 278,-40.8 164,-40.8"/>
</g>
<g id="clust5" class="cluster">
<title>cluster_SidebarModule_exports</title>
<polygon fill="none" stroke="black" points="75,-170.8 75,-222.8 219,-222.8 219,-170.8 75,-170.8"/>
</g>
<g id="clust2" class="cluster">
<title>cluster_SidebarModule_declarations</title>
<polygon fill="none" stroke="black" points="16,-40.8 16,-92.8 156,-92.8 156,-40.8 16,-40.8"/>
</g>
<!-- SidebarComponent -->
<g id="node1" class="node">
<title>SidebarComponent</title>
<polygon fill="#ffffb3" stroke="black" points="148.1,-84.8 23.9,-84.8 23.9,-48.8 148.1,-48.8 148.1,-84.8"/>
<text text-anchor="middle" x="86" y="-62.6" font-family="Times,serif" font-size="14.00">SidebarComponent</text>
</g>
<!-- SidebarModule -->
<g id="node2" class="node">
<title>SidebarModule</title>
<polygon fill="#8dd3c7" stroke="black" points="198.32,-149.8 195.32,-153.8 174.32,-153.8 171.32,-149.8 95.68,-149.8 95.68,-113.8 198.32,-113.8 198.32,-149.8"/>
<text text-anchor="middle" x="147" y="-127.6" font-family="Times,serif" font-size="14.00">SidebarModule</text>
</g>
<!-- SidebarComponent&#45;&gt;SidebarModule -->
<g id="edge1" class="edge">
<title>SidebarComponent&#45;&gt;SidebarModule</title>
<path fill="none" stroke="black" d="M121.94,-84.91C121.94,-84.91 121.94,-103.79 121.94,-103.79"/>
<polygon fill="black" stroke="black" points="118.44,-103.79 121.94,-113.79 125.44,-103.79 118.44,-103.79"/>
</g>
<!-- SidebarComponent  -->
<g id="node4" class="node">
<title>SidebarComponent </title>
<polygon fill="#fb8072" stroke="black" points="210.6,-214.8 83.4,-214.8 83.4,-178.8 210.6,-178.8 210.6,-214.8"/>
<text text-anchor="middle" x="147" y="-192.6" font-family="Times,serif" font-size="14.00">SidebarComponent </text>
</g>
<!-- SidebarModule&#45;&gt;SidebarComponent  -->
<g id="edge3" class="edge">
<title>SidebarModule&#45;&gt;SidebarComponent </title>
<path fill="none" stroke="black" stroke-dasharray="5,2" d="M147,-149.91C147,-149.91 147,-168.79 147,-168.79"/>
<polygon fill="black" stroke="black" points="143.5,-168.79 147,-178.79 150.5,-168.79 143.5,-168.79"/>
</g>
<!-- SharedModule -->
<g id="node3" class="node">
<title>SharedModule</title>
<polygon fill="#8dd3c7" stroke="black" points="270.43,-84.8 267.43,-88.8 246.43,-88.8 243.43,-84.8 171.57,-84.8 171.57,-48.8 270.43,-48.8 270.43,-84.8"/>
<text text-anchor="middle" x="221" y="-62.6" font-family="Times,serif" font-size="14.00">SharedModule</text>
</g>
<!-- SharedModule&#45;&gt;SidebarModule -->
<g id="edge2" class="edge">
<title>SharedModule&#45;&gt;SidebarModule</title>
<path fill="none" stroke="black" d="M184.97,-84.91C184.97,-84.91 184.97,-103.79 184.97,-103.79"/>
<polygon fill="black" stroke="black" points="181.47,-103.79 184.97,-113.79 188.47,-103.79 181.47,-103.79"/>
</g>
</g>
</svg>
